<mxfile host="app.diagrams.net" modified="2020-10-27T10:46:43.288Z" agent="5.0 (Windows NT 10.0; Win64; x64) AppleWebKit/537.36 (KHTML, like Gecko) Chrome/86.0.4240.111 Safari/537.36" etag="uRy4hIGSvIVTMQGpNNKf" version="13.8.3" type="github">
  <diagram name="Page-1" id="822b0af5-4adb-64df-f703-e8dfc1f81529">
    <mxGraphModel dx="1038" dy="548" grid="1" gridSize="10" guides="1" tooltips="1" connect="1" arrows="1" fold="1" page="1" pageScale="1" pageWidth="1700" pageHeight="1100" background="#ffffff" math="0" shadow="0">
      <root>
        <mxCell id="0" />
        <mxCell id="1" parent="0" />
        <mxCell id="3pc_l4z9qfXUdPNkcv5j-1" value="" style="ellipse;whiteSpace=wrap;html=1;aspect=fixed;" vertex="1" parent="1">
          <mxGeometry x="120" y="40" width="80" height="80" as="geometry" />
        </mxCell>
        <mxCell id="3pc_l4z9qfXUdPNkcv5j-2" value="" style="ellipse;whiteSpace=wrap;html=1;aspect=fixed;" vertex="1" parent="1">
          <mxGeometry x="120" y="170" width="80" height="80" as="geometry" />
        </mxCell>
        <mxCell id="3pc_l4z9qfXUdPNkcv5j-3" value="" style="ellipse;whiteSpace=wrap;html=1;aspect=fixed;" vertex="1" parent="1">
          <mxGeometry x="490" y="170" width="80" height="80" as="geometry" />
        </mxCell>
        <mxCell id="3pc_l4z9qfXUdPNkcv5j-4" value="" style="ellipse;whiteSpace=wrap;html=1;aspect=fixed;" vertex="1" parent="1">
          <mxGeometry x="490" y="45" width="70" height="70" as="geometry" />
        </mxCell>
        <mxCell id="3pc_l4z9qfXUdPNkcv5j-5" value="" style="endArrow=none;html=1;exitX=1;exitY=0.5;exitDx=0;exitDy=0;entryX=0;entryY=0.5;entryDx=0;entryDy=0;" edge="1" parent="1" source="3pc_l4z9qfXUdPNkcv5j-1" target="3pc_l4z9qfXUdPNkcv5j-4">
          <mxGeometry width="50" height="50" relative="1" as="geometry">
            <mxPoint x="640" y="380" as="sourcePoint" />
            <mxPoint x="690" y="330" as="targetPoint" />
            <Array as="points" />
          </mxGeometry>
        </mxCell>
        <mxCell id="3pc_l4z9qfXUdPNkcv5j-6" value="" style="endArrow=none;html=1;exitX=1;exitY=0.5;exitDx=0;exitDy=0;entryX=0;entryY=0.5;entryDx=0;entryDy=0;" edge="1" parent="1" source="3pc_l4z9qfXUdPNkcv5j-2" target="3pc_l4z9qfXUdPNkcv5j-3">
          <mxGeometry width="50" height="50" relative="1" as="geometry">
            <mxPoint x="640" y="380" as="sourcePoint" />
            <mxPoint x="690" y="330" as="targetPoint" />
          </mxGeometry>
        </mxCell>
        <mxCell id="3pc_l4z9qfXUdPNkcv5j-8" value="" style="endArrow=none;html=1;exitX=0.5;exitY=1;exitDx=0;exitDy=0;" edge="1" parent="1" source="3pc_l4z9qfXUdPNkcv5j-4">
          <mxGeometry width="50" height="50" relative="1" as="geometry">
            <mxPoint x="640" y="380" as="sourcePoint" />
            <mxPoint x="525" y="170" as="targetPoint" />
          </mxGeometry>
        </mxCell>
        <mxCell id="3pc_l4z9qfXUdPNkcv5j-9" value="" style="endArrow=none;html=1;exitX=0.5;exitY=1;exitDx=0;exitDy=0;entryX=0.5;entryY=0;entryDx=0;entryDy=0;" edge="1" parent="1" source="3pc_l4z9qfXUdPNkcv5j-1" target="3pc_l4z9qfXUdPNkcv5j-2">
          <mxGeometry width="50" height="50" relative="1" as="geometry">
            <mxPoint x="650" y="390" as="sourcePoint" />
            <mxPoint x="700" y="340" as="targetPoint" />
          </mxGeometry>
        </mxCell>
        <mxCell id="3pc_l4z9qfXUdPNkcv5j-10" value="" style="ellipse;whiteSpace=wrap;html=1;aspect=fixed;" vertex="1" parent="1">
          <mxGeometry x="110" y="350" width="80" height="80" as="geometry" />
        </mxCell>
        <mxCell id="3pc_l4z9qfXUdPNkcv5j-11" value="" style="ellipse;whiteSpace=wrap;html=1;aspect=fixed;" vertex="1" parent="1">
          <mxGeometry x="110" y="480" width="80" height="80" as="geometry" />
        </mxCell>
        <mxCell id="3pc_l4z9qfXUdPNkcv5j-12" value="" style="ellipse;whiteSpace=wrap;html=1;aspect=fixed;" vertex="1" parent="1">
          <mxGeometry x="480" y="480" width="80" height="80" as="geometry" />
        </mxCell>
        <mxCell id="3pc_l4z9qfXUdPNkcv5j-13" value="" style="ellipse;whiteSpace=wrap;html=1;aspect=fixed;" vertex="1" parent="1">
          <mxGeometry x="480" y="355" width="70" height="70" as="geometry" />
        </mxCell>
        <mxCell id="3pc_l4z9qfXUdPNkcv5j-14" value="" style="endArrow=none;html=1;exitX=1;exitY=0.5;exitDx=0;exitDy=0;entryX=0;entryY=0.5;entryDx=0;entryDy=0;" edge="1" parent="1" source="3pc_l4z9qfXUdPNkcv5j-10" target="3pc_l4z9qfXUdPNkcv5j-13">
          <mxGeometry width="50" height="50" relative="1" as="geometry">
            <mxPoint x="630" y="690" as="sourcePoint" />
            <mxPoint x="680" y="640" as="targetPoint" />
            <Array as="points" />
          </mxGeometry>
        </mxCell>
        <mxCell id="3pc_l4z9qfXUdPNkcv5j-15" value="" style="endArrow=none;html=1;exitX=1;exitY=0.5;exitDx=0;exitDy=0;entryX=0;entryY=0.5;entryDx=0;entryDy=0;" edge="1" parent="1" source="3pc_l4z9qfXUdPNkcv5j-11" target="3pc_l4z9qfXUdPNkcv5j-12">
          <mxGeometry width="50" height="50" relative="1" as="geometry">
            <mxPoint x="630" y="690" as="sourcePoint" />
            <mxPoint x="680" y="640" as="targetPoint" />
          </mxGeometry>
        </mxCell>
        <mxCell id="3pc_l4z9qfXUdPNkcv5j-16" value="" style="endArrow=none;html=1;exitX=0.5;exitY=1;exitDx=0;exitDy=0;" edge="1" parent="1" source="3pc_l4z9qfXUdPNkcv5j-13">
          <mxGeometry width="50" height="50" relative="1" as="geometry">
            <mxPoint x="630" y="690" as="sourcePoint" />
            <mxPoint x="515" y="480" as="targetPoint" />
          </mxGeometry>
        </mxCell>
        <mxCell id="3pc_l4z9qfXUdPNkcv5j-17" value="" style="endArrow=none;html=1;exitX=0.5;exitY=1;exitDx=0;exitDy=0;entryX=0.5;entryY=0;entryDx=0;entryDy=0;" edge="1" parent="1" source="3pc_l4z9qfXUdPNkcv5j-10" target="3pc_l4z9qfXUdPNkcv5j-11">
          <mxGeometry width="50" height="50" relative="1" as="geometry">
            <mxPoint x="640" y="700" as="sourcePoint" />
            <mxPoint x="690" y="650" as="targetPoint" />
          </mxGeometry>
        </mxCell>
        <mxCell id="3pc_l4z9qfXUdPNkcv5j-18" value="USER ID" style="text;html=1;strokeColor=none;fillColor=none;align=center;verticalAlign=middle;whiteSpace=wrap;rounded=0;" vertex="1" parent="1">
          <mxGeometry x="310" y="130" width="40" height="20" as="geometry" />
        </mxCell>
        <mxCell id="3pc_l4z9qfXUdPNkcv5j-20" value="Magnet Links&lt;br&gt;+&lt;br&gt;Nom du fichier" style="text;html=1;strokeColor=none;fillColor=none;align=center;verticalAlign=middle;whiteSpace=wrap;rounded=0;" vertex="1" parent="1">
          <mxGeometry x="281" y="430" width="89" height="40" as="geometry" />
        </mxCell>
        <mxCell id="3pc_l4z9qfXUdPNkcv5j-21" value="" style="ellipse;whiteSpace=wrap;html=1;aspect=fixed;" vertex="1" parent="1">
          <mxGeometry x="120" y="630" width="80" height="80" as="geometry" />
        </mxCell>
        <mxCell id="3pc_l4z9qfXUdPNkcv5j-22" value="" style="ellipse;whiteSpace=wrap;html=1;aspect=fixed;" vertex="1" parent="1">
          <mxGeometry x="120" y="760" width="80" height="80" as="geometry" />
        </mxCell>
        <mxCell id="3pc_l4z9qfXUdPNkcv5j-23" value="" style="ellipse;whiteSpace=wrap;html=1;aspect=fixed;" vertex="1" parent="1">
          <mxGeometry x="490" y="760" width="80" height="80" as="geometry" />
        </mxCell>
        <mxCell id="3pc_l4z9qfXUdPNkcv5j-24" value="" style="ellipse;whiteSpace=wrap;html=1;aspect=fixed;" vertex="1" parent="1">
          <mxGeometry x="490" y="635" width="70" height="70" as="geometry" />
        </mxCell>
        <mxCell id="3pc_l4z9qfXUdPNkcv5j-25" value="" style="endArrow=none;html=1;exitX=1;exitY=0.5;exitDx=0;exitDy=0;entryX=0;entryY=0.5;entryDx=0;entryDy=0;" edge="1" parent="1" source="3pc_l4z9qfXUdPNkcv5j-21" target="3pc_l4z9qfXUdPNkcv5j-24">
          <mxGeometry width="50" height="50" relative="1" as="geometry">
            <mxPoint x="640" y="970" as="sourcePoint" />
            <mxPoint x="690" y="920" as="targetPoint" />
            <Array as="points" />
          </mxGeometry>
        </mxCell>
        <mxCell id="3pc_l4z9qfXUdPNkcv5j-26" value="" style="endArrow=none;html=1;exitX=1;exitY=0.5;exitDx=0;exitDy=0;entryX=0;entryY=0.5;entryDx=0;entryDy=0;" edge="1" parent="1" source="3pc_l4z9qfXUdPNkcv5j-22" target="3pc_l4z9qfXUdPNkcv5j-23">
          <mxGeometry width="50" height="50" relative="1" as="geometry">
            <mxPoint x="640" y="970" as="sourcePoint" />
            <mxPoint x="690" y="920" as="targetPoint" />
          </mxGeometry>
        </mxCell>
        <mxCell id="3pc_l4z9qfXUdPNkcv5j-27" value="" style="endArrow=none;html=1;exitX=0.5;exitY=1;exitDx=0;exitDy=0;" edge="1" parent="1" source="3pc_l4z9qfXUdPNkcv5j-24">
          <mxGeometry width="50" height="50" relative="1" as="geometry">
            <mxPoint x="640" y="970" as="sourcePoint" />
            <mxPoint x="525" y="760" as="targetPoint" />
          </mxGeometry>
        </mxCell>
        <mxCell id="3pc_l4z9qfXUdPNkcv5j-28" value="" style="endArrow=none;html=1;exitX=0.5;exitY=1;exitDx=0;exitDy=0;entryX=0.5;entryY=0;entryDx=0;entryDy=0;" edge="1" parent="1" source="3pc_l4z9qfXUdPNkcv5j-21" target="3pc_l4z9qfXUdPNkcv5j-22">
          <mxGeometry width="50" height="50" relative="1" as="geometry">
            <mxPoint x="650" y="980" as="sourcePoint" />
            <mxPoint x="700" y="930" as="targetPoint" />
          </mxGeometry>
        </mxCell>
        <mxCell id="3pc_l4z9qfXUdPNkcv5j-30" value="" style="ellipse;whiteSpace=wrap;html=1;aspect=fixed;fillColor=#fff2cc;strokeColor=#d6b656;" vertex="1" parent="1">
          <mxGeometry x="120" y="900" width="80" height="80" as="geometry" />
        </mxCell>
        <mxCell id="3pc_l4z9qfXUdPNkcv5j-33" value="" style="endArrow=none;html=1;exitX=0.5;exitY=0;exitDx=0;exitDy=0;entryX=0.5;entryY=1;entryDx=0;entryDy=0;fillColor=#fff2cc;strokeColor=#d6b656;" edge="1" parent="1" source="3pc_l4z9qfXUdPNkcv5j-30" target="3pc_l4z9qfXUdPNkcv5j-22">
          <mxGeometry width="50" height="50" relative="1" as="geometry">
            <mxPoint x="360" y="870" as="sourcePoint" />
            <mxPoint x="410" y="820" as="targetPoint" />
          </mxGeometry>
        </mxCell>
        <mxCell id="3pc_l4z9qfXUdPNkcv5j-34" value="" style="ellipse;whiteSpace=wrap;html=1;aspect=fixed;fillColor=#fff2cc;strokeColor=#d6b656;" vertex="1" parent="1">
          <mxGeometry x="490" y="900" width="80" height="80" as="geometry" />
        </mxCell>
        <mxCell id="3pc_l4z9qfXUdPNkcv5j-35" value="" style="endArrow=none;html=1;exitX=1;exitY=0.5;exitDx=0;exitDy=0;entryX=0;entryY=0.5;entryDx=0;entryDy=0;fillColor=#fff2cc;strokeColor=#d6b656;" edge="1" parent="1" source="3pc_l4z9qfXUdPNkcv5j-30" target="3pc_l4z9qfXUdPNkcv5j-34">
          <mxGeometry width="50" height="50" relative="1" as="geometry">
            <mxPoint x="360" y="870" as="sourcePoint" />
            <mxPoint x="410" y="820" as="targetPoint" />
          </mxGeometry>
        </mxCell>
        <mxCell id="3pc_l4z9qfXUdPNkcv5j-36" value="" style="endArrow=none;html=1;exitX=0.5;exitY=0;exitDx=0;exitDy=0;entryX=0.5;entryY=1;entryDx=0;entryDy=0;fillColor=#fff2cc;strokeColor=#d6b656;" edge="1" parent="1" source="3pc_l4z9qfXUdPNkcv5j-34" target="3pc_l4z9qfXUdPNkcv5j-23">
          <mxGeometry width="50" height="50" relative="1" as="geometry">
            <mxPoint x="360" y="870" as="sourcePoint" />
            <mxPoint x="525" y="850" as="targetPoint" />
          </mxGeometry>
        </mxCell>
        <mxCell id="3pc_l4z9qfXUdPNkcv5j-37" value="réseau MD1" style="text;html=1;strokeColor=none;fillColor=none;align=center;verticalAlign=middle;whiteSpace=wrap;rounded=0;" vertex="1" parent="1">
          <mxGeometry x="310" y="710" width="50" height="30" as="geometry" />
        </mxCell>
        <mxCell id="3pc_l4z9qfXUdPNkcv5j-38" value="réseau MD2" style="text;html=1;strokeColor=#d6b656;fillColor=#fff2cc;align=center;verticalAlign=middle;whiteSpace=wrap;rounded=0;" vertex="1" parent="1">
          <mxGeometry x="310" y="840" width="50" height="30" as="geometry" />
        </mxCell>
        <mxCell id="3pc_l4z9qfXUdPNkcv5j-40" value="" style="ellipse;whiteSpace=wrap;html=1;aspect=fixed;fillColor=#f8cecc;strokeColor=#b85450;" vertex="1" parent="1">
          <mxGeometry x="720" y="640" width="80" height="80" as="geometry" />
        </mxCell>
        <mxCell id="3pc_l4z9qfXUdPNkcv5j-41" value="" style="ellipse;whiteSpace=wrap;html=1;aspect=fixed;fillColor=#f8cecc;strokeColor=#b85450;" vertex="1" parent="1">
          <mxGeometry x="720" y="880" width="80" height="80" as="geometry" />
        </mxCell>
        <mxCell id="3pc_l4z9qfXUdPNkcv5j-42" value="" style="ellipse;whiteSpace=wrap;html=1;aspect=fixed;fillColor=#f8cecc;strokeColor=#b85450;" vertex="1" parent="1">
          <mxGeometry x="870" y="760" width="80" height="80" as="geometry" />
        </mxCell>
        <mxCell id="3pc_l4z9qfXUdPNkcv5j-44" value="" style="endArrow=none;html=1;entryX=0;entryY=0.5;entryDx=0;entryDy=0;exitX=1;exitY=0.5;exitDx=0;exitDy=0;fillColor=#f8cecc;strokeColor=#b85450;" edge="1" parent="1" source="3pc_l4z9qfXUdPNkcv5j-23" target="3pc_l4z9qfXUdPNkcv5j-40">
          <mxGeometry width="50" height="50" relative="1" as="geometry">
            <mxPoint x="520" y="850" as="sourcePoint" />
            <mxPoint x="570" y="800" as="targetPoint" />
          </mxGeometry>
        </mxCell>
        <mxCell id="3pc_l4z9qfXUdPNkcv5j-45" value="" style="endArrow=none;html=1;entryX=0.5;entryY=1;entryDx=0;entryDy=0;exitX=1;exitY=0.5;exitDx=0;exitDy=0;fillColor=#f8cecc;strokeColor=#b85450;" edge="1" parent="1" source="3pc_l4z9qfXUdPNkcv5j-41" target="3pc_l4z9qfXUdPNkcv5j-42">
          <mxGeometry width="50" height="50" relative="1" as="geometry">
            <mxPoint x="520" y="850" as="sourcePoint" />
            <mxPoint x="570" y="800" as="targetPoint" />
          </mxGeometry>
        </mxCell>
        <mxCell id="3pc_l4z9qfXUdPNkcv5j-46" value="" style="endArrow=none;html=1;entryX=1;entryY=1;entryDx=0;entryDy=0;exitX=0;exitY=0;exitDx=0;exitDy=0;fillColor=#f8cecc;strokeColor=#b85450;" edge="1" parent="1" source="3pc_l4z9qfXUdPNkcv5j-42" target="3pc_l4z9qfXUdPNkcv5j-40">
          <mxGeometry width="50" height="50" relative="1" as="geometry">
            <mxPoint x="520" y="850" as="sourcePoint" />
            <mxPoint x="570" y="800" as="targetPoint" />
          </mxGeometry>
        </mxCell>
        <mxCell id="3pc_l4z9qfXUdPNkcv5j-47" value="" style="endArrow=none;html=1;entryX=0;entryY=0.5;entryDx=0;entryDy=0;exitX=1;exitY=0.5;exitDx=0;exitDy=0;fillColor=#f8cecc;strokeColor=#b85450;" edge="1" parent="1" source="3pc_l4z9qfXUdPNkcv5j-23" target="3pc_l4z9qfXUdPNkcv5j-41">
          <mxGeometry width="50" height="50" relative="1" as="geometry">
            <mxPoint x="520" y="850" as="sourcePoint" />
            <mxPoint x="570" y="800" as="targetPoint" />
          </mxGeometry>
        </mxCell>
        <mxCell id="3pc_l4z9qfXUdPNkcv5j-48" value="réseau MD3" style="text;html=1;strokeColor=#b85450;fillColor=#f8cecc;align=center;verticalAlign=middle;whiteSpace=wrap;rounded=0;" vertex="1" parent="1">
          <mxGeometry x="735" y="785" width="50" height="30" as="geometry" />
        </mxCell>
        <mxCell id="3pc_l4z9qfXUdPNkcv5j-49" value="Architecture Bittorrent&lt;br&gt;Transfer de fichiers" style="text;html=1;strokeColor=none;fillColor=none;align=center;verticalAlign=middle;whiteSpace=wrap;rounded=0;" vertex="1" parent="1">
          <mxGeometry x="475" y="990" width="100" height="70" as="geometry" />
        </mxCell>
        <mxCell id="3pc_l4z9qfXUdPNkcv5j-50" value="distribution des comptes utilisateur entre les membres du réseau CHORD" style="text;html=1;strokeColor=none;fillColor=none;align=center;verticalAlign=middle;whiteSpace=wrap;rounded=0;" vertex="1" parent="1">
          <mxGeometry x="630" y="100" width="180" height="80" as="geometry" />
        </mxCell>
        <mxCell id="3pc_l4z9qfXUdPNkcv5j-51" value="Distribution des magnets link ainsi que du nom du fichier associé sur chaque membre du réseau CHORD" style="text;html=1;strokeColor=none;fillColor=none;align=center;verticalAlign=middle;whiteSpace=wrap;rounded=0;" vertex="1" parent="1">
          <mxGeometry x="600" y="430" width="210" height="40" as="geometry" />
        </mxCell>
      </root>
    </mxGraphModel>
  </diagram>
</mxfile>
